<svg xmlns="http://www.w3.org/2000/svg" xmlns:xlink="http://www.w3.org/1999/xlink" viewBox="0 0 1000.05 530.36"><defs><style>.cls-1{fill:url(#linear-gradient);}.cls-2{fill:url(#linear-gradient-2);}.cls-3{fill:url(#linear-gradient-3);}.cls-4{fill:url(#linear-gradient-4);}.cls-5{fill:url(#linear-gradient-5);}.cls-6{fill:url(#linear-gradient-6);}.cls-7{fill:url(#linear-gradient-7);}.cls-8{fill:url(#linear-gradient-8);}.cls-9{fill:url(#linear-gradient-9);}.cls-10{fill:url(#linear-gradient-10);}.cls-11{fill:url(#linear-gradient-11);}</style><linearGradient id="linear-gradient" x1="-65.99" y1="422.88" x2="932.01" y2="-57.12" gradientUnits="userSpaceOnUse"><stop offset="0" stop-color="#587693"/><stop offset="1" stop-color="#7e98b3"/></linearGradient><linearGradient id="linear-gradient-2" x1="-19.74" y1="519.05" x2="978.26" y2="39.05" xlink:href="#linear-gradient"/><linearGradient id="linear-gradient-3" x1="5.07" y1="570.63" x2="1003.07" y2="90.63" xlink:href="#linear-gradient"/><linearGradient id="linear-gradient-4" x1="35.23" y1="633.33" x2="1033.23" y2="153.33" xlink:href="#linear-gradient"/><linearGradient id="linear-gradient-5" x1="67.11" y1="699.61" x2="1065.11" y2="219.61" xlink:href="#linear-gradient"/><linearGradient id="linear-gradient-6" x1="96.32" y1="760.35" x2="1094.32" y2="280.35" xlink:href="#linear-gradient"/><linearGradient id="linear-gradient-7" x1="-15.2" y1="528.49" x2="982.8" y2="48.49" xlink:href="#linear-gradient"/><linearGradient id="linear-gradient-8" x1="-63.38" y1="428.32" x2="934.62" y2="-51.68" xlink:href="#linear-gradient"/><linearGradient id="linear-gradient-9" x1="-61.45" y1="432.33" x2="936.55" y2="-47.67" xlink:href="#linear-gradient"/><linearGradient id="linear-gradient-10" x1="-18.86" y1="520.88" x2="979.14" y2="40.88" xlink:href="#linear-gradient"/><linearGradient id="linear-gradient-11" x1="80.42" y1="727.3" x2="1078.42" y2="247.3" xlink:href="#linear-gradient"/></defs><title>kaseya-footer-logo</title><g id="Layer_2" data-name="Layer 2"><g id="Layer_1-2" data-name="Layer 1"><path class="cls-1" d="M0,234.2H45.07v96.59l81.12-96.59h55.36L89.17,340.13,185.42,458.9H126.51L45.71,354.61h-.65V458.9H0Z"/><path class="cls-2" d="M202.81,301.81c16.72-7.74,39.26-12.57,57.62-12.57,50.53,0,71.45,20.93,71.45,69.87v21.24c0,16.75.32,29.3.65,41.53.32,12.56,1,24.15,1.93,37h-38c-1.61-8.69-1.61-19.63-1.94-24.79h-.65c-10,18.37-31.54,28.64-51.18,28.64-29.29,0-57.94-17.69-57.94-49.24,0-24.79,11.9-39.28,28.32-47.32s37.66-9.64,55.69-9.64h23.82c0-26.73-11.91-35.74-37.34-35.74-18.35,0-36.69,7.08-51.18,18Zm50.54,129.4c13.19,0,23.5-5.8,30.26-14.8,7.07-9.33,9-21.26,9-34.14H273.95c-19.31,0-48,3.23-48,28.65C226,425.11,237.89,431.21,253.35,431.21Z"/><path class="cls-3" d="M460,327.88c-13.2-4.5-22.86-7.08-38.62-7.08-11.58,0-25.43,4.19-25.43,18.35,0,26.39,75,9.66,75,69.53,0,38.63-34.44,54.08-69.53,54.08-16.41,0-33.14-2.91-48.92-7.08l2.57-35.41c13.53,6.77,27.69,10.93,42.51,10.93,10.94,0,28.32-4.17,28.32-20.27,0-32.51-75-10.31-75-70.17,0-35.75,31.24-51.52,65-51.52,20.27,0,33.48,3.22,47,6.12Z"/><path class="cls-4" d="M626.77,449.57c-15.77,8.69-33.8,13.2-57,13.2-54.72,0-86.58-31.56-86.58-85.94,0-48,25.43-87.58,76.92-87.58,61.49,0,78.86,42.18,78.86,100.12H524.38c1.94,26.71,20.61,41.83,47.32,41.83,20.93,0,38.94-7.72,55-16.74v35.1Zm-29-89.82c-1.28-20.93-10.94-38.94-35.08-38.94s-36.38,16.74-38.32,38.94Z"/><path class="cls-5" d="M725.28,414.14h.65l39.89-121h43.79L747.48,457.62c-13.84,36.7-23.8,72.74-68.9,72.74a109.3,109.3,0,0,1-30.57-4.5l2.9-31.86c5.47,1.92,11.58,2.88,22.21,2.88,17.37,0,28-11.9,28-29.61L637.71,293.11h47.65Z"/><path class="cls-6" d="M820.56,301.81c16.73-7.74,39.28-12.57,57.63-12.57,50.53,0,71.44,20.93,71.44,69.87v21.24c0,16.75.33,29.3.65,41.53.33,12.56,1,24.15,2,37h-38c-1.61-8.69-1.61-19.63-1.93-24.79h-.65c-10,18.37-31.54,28.64-51.17,28.64-29.31,0-58-17.69-58-49.24,0-24.79,11.91-39.28,28.32-47.32s37.67-9.64,55.7-9.64h23.82c0-26.73-11.91-35.74-37.35-35.74-18.37,0-36.7,7.08-51.17,18Zm50.54,129.4c13.21,0,23.48-5.8,30.26-14.8,7.08-9.33,9-21.26,9-34.14H891.71c-19.33,0-48,3.23-48,28.65C843.72,425.11,855.66,431.21,871.1,431.21Z"/><path class="cls-7" d="M669.35,118.38c-6.22,1.89-26.71,55-37.47,84.43,19.31,13.34,39.47,25.32,58.06,33.47,37.32,16.33,49,9.69,72.15-.78,16.61-7.5,42.66-25,65.48-41.69C799.86,175.61,765,153.58,745,144.15,707.59,126.45,678.38,115.64,669.35,118.38Z"/><path class="cls-8" d="M684.71,90.55s34.05-20,88.67-39.53c29.27-10.45,58.39-15.61,79.12-18.13-11.69-3.3-22.62-6.36-30.86-8.64C795.56,17.06,758,8.2,726.53,3.34c-1.48,7.53-5.11,19.84-14.25,37.52C699.89,64.74,684.71,90.55,684.71,90.55Z"/><path class="cls-9" d="M701.42.36c-28.59-2-33,4.52-38.51,8.39-14.68,8-75.52,44.4-105,70.08-27.94,24.34-23.28,39.55-10.26,54.85,10.54,12.39,29,27.09,57.76,49.58,1.31,1,2.63,2,4,3.09,11.54-25.62,36.7-81.19,49.07-107.24C672.92,48.55,692.61,15,701.42.36Z"/><path class="cls-10" d="M951.36,64.36c-10-5.21-18.88-8-26.62-10.56-3.92-1.27-14.17-4.29-27.05-8-22.81,3-60.62,8.7-97.27,17.47-37.95,9.1-101.69,40.05-101.69,40.05s80.58,25.92,156.08,69.81q3.79-3,7-5.61c23.41-19.18,82.89-68.57,95.58-90.16C960.5,72,957.85,67.74,951.36,64.36Z"/><path class="cls-11" d="M952.52,296.42a23.77,23.77,0,1,1,23.77,23.79A23.8,23.8,0,0,1,952.52,296.42Zm41.74,0c0-11.13-8-19.16-18-19.16s-18,8-18,19.16,8.05,19.18,18,19.18S994.25,307.55,994.25,296.42Zm-27.11-13.56h10c6.45,0,9.95,2.23,9.95,7.9,0,4.61-2.64,6.85-7,7.25l7.25,11.79h-5.16l-7-11.58h-3v11.58h-5Zm5,11.53h4.41c3,0,5.55-.4,5.55-4,0-3.17-2.91-3.69-5.48-3.69h-4.48Z"/></g></g></svg>